<svg xmlns="http://www.w3.org/2000/svg" viewBox="0 0 64 64" shape-rendering="crispEdges">
  <rect width="64" height="64" fill="#090a0c" />
  <rect x="4" y="4" width="56" height="56" fill="#222222" />
  <rect x="4" y="4" width="56" height="4" fill="#f2f4f7" opacity="0.18" />
  <rect x="4" y="56" width="56" height="4" fill="#f2f4f7" opacity="0.1" />
  <rect x="4" y="8" width="4" height="48" fill="#f2f4f7" opacity="0.18" />
  <rect x="56" y="8" width="4" height="48" fill="#f2f4f7" opacity="0.1" />
  <rect x="8" y="10" width="48" height="2" fill="#f2f4f7" opacity="0.06" />

  <!-- Bitmap-font style "IP" (4px grid cells) -->
  <g fill="#f2f4f7">
    <!-- I: 3x5 bitmap -->
    <rect x="14" y="18" width="12" height="4" />
    <rect x="18" y="22" width="4" height="4" />
    <rect x="18" y="26" width="4" height="4" />
    <rect x="18" y="30" width="4" height="4" />
    <rect x="14" y="34" width="12" height="4" />

    <!-- P: 3x5 bitmap -->
    <rect x="34" y="18" width="4" height="20" />
    <rect x="38" y="18" width="8" height="4" />
    <rect x="46" y="22" width="4" height="4" />
    <rect x="38" y="26" width="8" height="4" />
  </g>

  <rect x="48" y="10" width="4" height="4" fill="#6ee7b7" />
</svg>
